<svg xmlns="http://www.w3.org/2000/svg" xmlns:ev="http://www.w3.org/2001/xml-events" xmlns:xlink="http://www.w3.org/1999/xlink" width="840.389" height="452.747" class="st17" color-interpolation-filters="sRGB" viewBox="0 0 630.291 339.56" xml:space="preserve"><style type="text/css">.st1,.st2{fill:#fff;stroke:none;stroke-linecap:round;stroke-linejoin:round;stroke-width:.75}.st2{fill:#cdcdcd}.st3{fill:none}.st4{stroke:#000;stroke-linecap:round;stroke-linejoin:round;stroke-width:.959535}.st5{fill:#000;font-family:Intel Clear;font-size:1.00001em}.st6{font-size:1em}.st7{fill:#fff;stroke:#000;stroke-linecap:round;stroke-linejoin:round;stroke-width:1}.st8{fill:#000;font-family:Intel Clear;font-size:.75em}.st9{font-size:.666656em}.st10,.st11{stroke:#000;stroke-linecap:round;stroke-linejoin:round}.st10{fill:#7f7f7f;stroke-width:.24}.st11{marker-end:url(#mrkr13-99);stroke-width:.75}.st12{fill:#000;fill-opacity:1;stroke:#000;stroke-opacity:1;stroke-width:.22935779816514}.st13,.st14{stroke:#000;stroke-linecap:round;stroke-linejoin:round}.st13{marker-start:url(#mrkr13-115);stroke-width:.75}.st14{fill:#fff2cc;stroke-width:1}.st15{fill:#000;font-family:Intel Clear;font-size:.75em;font-weight:700}.st16{font-size:1em;font-weight:400}.st17{fill:none;fill-rule:evenodd;font-size:12px;overflow:visible;stroke-linecap:square;stroke-miterlimit:3}</style><defs id="Markers"><g id="lend13"><path d="M 3 1 L 0 0 L 3 -1 L 3 1" style="stroke:none"/></g><marker id="mrkr13-99" class="st12" markerUnits="strokeWidth" orient="auto" overflow="visible" refX="-13.08"><use transform="scale(-4.36,-4.36)" xlink:href="#lend13"/></marker><marker id="mrkr13-115" class="st12" markerUnits="strokeWidth" orient="auto" overflow="visible" refX="12.6"><use transform="scale(4.36)" xlink:href="#lend13"/></marker></defs><g><title>Page-1</title><g id="group203-1" transform="translate(25.2573,-266.512)"><title>Sheet.203</title><desc>Original pod spec</desc><g id="shape198-2" transform="translate(4.38618,5.68434E-014)"><title>Sheet.198</title><path d="M0 339.56 C2.42 339.56 4.39 337.6 4.39 335.18 L0 335.18 C1.22 335.18 2.2 334.21 2.2 332.99 C2.2 331.79 1.22 330.8 0 330.8 L4.39 330.8 L4.39 271.37 C4.39 268.96 6.35 266.99 8.78 266.99 L72.39 266.99 C74.81 266.99 76.78 268.96 76.78 271.37 C76.78 273.79 74.81 275.75 72.39 275.75 L68 275.75 L68 335.18 C68 337.6 66.04 339.56 63.62 339.56 L0 339.56 ZM13.16 271.37 C13.16 273.79 11.2 275.75 8.78 275.75 C7.56 275.75 6.59 274.77 6.59 273.56 C6.59 272.35 7.56 271.37 8.78 271.37 L13.16 271.37 Z" class="st1"/></g><g id="shape199-4"><title>Sheet.199</title><path d="M17.55 271.37 C17.55 273.79 15.58 275.75 13.16 275.75 C11.95 275.75 10.97 274.77 10.97 273.56 C10.97 272.35 11.95 271.37 13.16 271.37 L17.55 271.37 ZM8.78 335.18 C8.78 337.6 6.81 339.56 4.39 339.56 C1.97 339.56 -0 337.6 0 335.18 C0 332.77 1.97 330.8 4.39 330.8 C5.6 330.8 6.59 331.79 6.59 332.99 C6.59 334.21 5.6 335.18 4.39 335.18 L8.78 335.18 Z" class="st2"/></g><g id="shape200-6"><title>Sheet.200</title><path d="M8.78 330.8 L8.78 271.37 C8.78 268.96 10.74 266.99 13.16 266.99 L76.78 266.99 C79.2 266.99 81.16 268.96 81.16 271.37 C81.16 273.79 79.2 275.75 76.78 275.75 L72.39 275.75 L72.39 335.18 C72.39 337.6 70.43 339.56 68 339.56 L4.39 339.56 C1.97 339.56 0 337.6 0 335.18 C0 332.77 1.97 330.8 4.39 330.8 L8.78 330.8 Z" class="st3"/><path d="M8.78 330.8 L8.78 271.37 C8.78 268.96 10.74 266.99 13.16 266.99 L76.78 266.99 C79.2 266.99 81.16 268.96 81.16 271.37 C81.16 273.79 79.2 275.75 76.78 275.75 L72.39 275.75 L72.39 335.18 C72.39 337.6 70.43 339.56 68 339.56 L4.39 339.56 C1.97 339.56 0 337.6 0 335.18 C0 332.77 1.97 330.8 4.39 330.8 L8.78 330.8" class="st4"/><path d="M13.16 266.99 C15.58 266.99 17.55 268.96 17.55 271.37 C17.55 273.79 15.58 275.75 13.16 275.75 C11.95 275.75 10.97 274.77 10.97 273.56 C10.97 272.35 11.95 271.37 13.16 271.37 L17.55 271.37" class="st4"/><path d="M72.39 275.75 L13.16 275.75" class="st4"/><path d="M4.39 330.8 C5.6 330.8 6.59 331.79 6.59 332.99 C6.59 334.21 5.6 335.18 4.39 335.18 L8.78 335.18" class="st4"/><path d="M4.39 339.56 C6.81 339.56 8.78 337.6 8.78 335.18 L8.78 330.8" class="st4"/></g><g id="shape203-13"><text x="19.23" y="299.68" class="st5">Original<tspan x="15.77" class="st6" dy="1.2em">pod spec</tspan></text></g></g><g id="shape204-16" transform="translate(9.14567,-146.891)"><title>Rectangle</title><desc>API Server</desc><rect width="113.386" height="73.701" x="0" y="265.859" class="st7"/><text x="28.47" y="306.31" class="st5">API Server</text></g><g id="group208-19" transform="translate(9.14567,1.13687E-013)"><title>Sheet.208</title><g id="shape205-20" transform="translate(-8.64567,-22.1662)"><title>Rectangle.205</title><rect width="113.386" height="73.701" x="0" y="265.859" class="st7"/></g><g id="shape206-22" transform="translate(0,-10.8276)"><title>Rectangle.206</title><rect width="113.386" height="73.701" x="0" y="265.859" class="st7"/></g><g id="shape207-24" transform="translate(10.063,-2.32367)"><title>Rectangle.207</title><desc>Kubelet</desc><rect width="113.386" height="73.701" x="0" y="265.859" class="st7"/><text x="35.61" y="306.31" class="st5">Kubelet</text></g></g><g id="shape209-27" transform="translate(210.264,-146.891)"><title>Rectangle.209</title><desc>CMK Mutating Webhook</desc><rect width="113.386" height="73.701" x="0" y="265.859" class="st7"/><text x="44.12" y="299.11" class="st5">CMK<tspan x="4.82" class="st6" dy="1.2em">Mutating Webhook</tspan></text></g><g id="shape210-31" transform="translate(386.012,-64.6859)"><title>Rectangle.210</title><rect width="243.78" height="238.11" x="0" y="101.45" class="st7"/></g><g id="group211-33" transform="translate(404.585,-200.749)"><title>Sheet.211</title><desc>Original pod spec</desc><g id="shape212-34" transform="translate(5.27706,1.13687E-013)"><title>Sheet.212</title><path d="M0 339.56 C2.92 339.56 5.28 337.2 5.28 334.29 L0 334.29 C1.46 334.29 2.65 333.12 2.65 331.66 C2.65 330.21 1.46 329.03 0 329.03 L5.28 329.03 L5.28 257.52 C5.28 254.62 7.65 252.25 10.56 252.25 L87.09 252.25 C90.01 252.25 92.37 254.62 92.37 257.52 C92.37 260.43 90.01 262.79 87.09 262.79 L81.82 262.79 L81.82 334.29 C81.82 337.2 79.46 339.56 76.54 339.56 L0 339.56 ZM15.84 257.52 C15.84 260.43 13.47 262.79 10.56 262.79 C9.1 262.79 7.92 261.61 7.92 260.16 C7.92 258.7 9.1 257.52 10.56 257.52 L15.84 257.52 Z" class="st1"/></g><g id="shape213-36"><title>Sheet.213</title><path d="M21.12 257.52 C21.12 260.43 18.75 262.79 15.84 262.79 C14.38 262.79 13.2 261.61 13.2 260.16 C13.2 258.7 14.38 257.52 15.84 257.52 L21.12 257.52 ZM10.56 334.29 C10.56 337.2 8.19 339.56 5.28 339.56 C2.37 339.56 0 337.2 0 334.29 C0 331.39 2.37 329.03 5.28 329.03 C6.74 329.03 7.92 330.21 7.92 331.66 C7.92 333.12 6.74 334.29 5.28 334.29 L10.56 334.29 Z" class="st2"/></g><g id="shape214-38"><title>Sheet.214</title><path d="M10.56 329.03 L10.56 257.52 C10.56 254.62 12.92 252.25 15.84 252.25 L92.37 252.25 C95.29 252.25 97.65 254.62 97.65 257.52 C97.65 260.43 95.29 262.79 92.37 262.79 L87.09 262.79 L87.09 334.29 C87.09 337.2 84.73 339.56 81.82 339.56 L5.28 339.56 C2.37 339.56 0 337.2 0 334.29 C-0 331.39 2.37 329.03 5.28 329.03 L10.56 329.03 Z" class="st3"/><path d="M10.56 329.03 L10.56 257.52 C10.56 254.62 12.92 252.25 15.84 252.25 L92.37 252.25 C95.29 252.25 97.65 254.62 97.65 257.52 C97.65 260.43 95.29 262.79 92.37 262.79 L87.09 262.79 L87.09 334.29 C87.09 337.2 84.73 339.56 81.82 339.56 L5.28 339.56 C2.37 339.56 0 337.2 0 334.29 C-0 331.39 2.37 329.03 5.28 329.03 L10.56 329.03" class="st4"/><path d="M15.84 252.25 C18.75 252.25 21.12 254.62 21.12 257.52 C21.12 260.43 18.75 262.79 15.84 262.79 C14.38 262.79 13.2 261.61 13.2 260.16 C13.2 258.7 14.38 257.52 15.84 257.52 L21.12 257.52" class="st4"/><path d="M87.09 262.79 L15.84 262.79" class="st4"/><path d="M5.28 329.03 C6.74 329.03 7.92 330.21 7.92 331.66 C7.92 333.12 6.74 334.29 5.28 334.29 L10.56 334.29" class="st4"/><path d="M5.28 339.56 C8.19 339.56 10.56 337.2 10.56 334.29 L10.56 329.03" class="st4"/></g><g id="shape211-45"><text x="27.47" y="292.31" class="st5">Original<tspan x="24.01" class="st6" dy="1.2em">pod spec</tspan></text></g></g><g id="group215-48" transform="translate(518.605,-200.749)"><title>Sheet.215</title><desc>mutations.yaml ConfigMap env: ... volumes: ... tolerations: ....</desc><g id="shape216-49" transform="translate(5.27706,1.13687E-013)"><title>Sheet.216</title><path d="M0 339.56 C2.92 339.56 5.28 337.2 5.28 334.29 L0 334.29 C1.46 334.29 2.65 333.12 2.65 331.66 C2.65 330.21 1.46 329.03 0 329.03 L5.28 329.03 L5.28 257.52 C5.28 254.62 7.65 252.25 10.56 252.25 L87.09 252.25 C90.01 252.25 92.37 254.62 92.37 257.52 C92.37 260.43 90.01 262.79 87.09 262.79 L81.82 262.79 L81.82 334.29 C81.82 337.2 79.46 339.56 76.54 339.56 L0 339.56 ZM15.84 257.52 C15.84 260.43 13.47 262.79 10.56 262.79 C9.1 262.79 7.92 261.61 7.92 260.16 C7.92 258.7 9.1 257.52 10.56 257.52 L15.84 257.52 Z" class="st1"/></g><g id="shape217-51"><title>Sheet.217</title><path d="M21.12 257.52 C21.12 260.43 18.75 262.79 15.84 262.79 C14.38 262.79 13.2 261.61 13.2 260.16 C13.2 258.7 14.38 257.52 15.84 257.52 L21.12 257.52 ZM10.56 334.29 C10.56 337.2 8.19 339.56 5.28 339.56 C2.37 339.56 0 337.2 0 334.29 C0 331.39 2.37 329.03 5.28 329.03 C6.74 329.03 7.92 330.21 7.92 331.66 C7.92 333.12 6.74 334.29 5.28 334.29 L10.56 334.29 Z" class="st2"/></g><g id="shape218-53"><title>Sheet.218</title><path d="M10.56 329.03 L10.56 257.52 C10.56 254.62 12.92 252.25 15.84 252.25 L92.37 252.25 C95.29 252.25 97.65 254.62 97.65 257.52 C97.65 260.43 95.29 262.79 92.37 262.79 L87.09 262.79 L87.09 334.29 C87.09 337.2 84.73 339.56 81.82 339.56 L5.28 339.56 C2.37 339.56 0 337.2 0 334.29 C-0 331.39 2.37 329.03 5.28 329.03 L10.56 329.03 Z" class="st3"/><path d="M10.56 329.03 L10.56 257.52 C10.56 254.62 12.92 252.25 15.84 252.25 L92.37 252.25 C95.29 252.25 97.65 254.62 97.65 257.52 C97.65 260.43 95.29 262.79 92.37 262.79 L87.09 262.79 L87.09 334.29 C87.09 337.2 84.73 339.56 81.82 339.56 L5.28 339.56 C2.37 339.56 0 337.2 0 334.29 C-0 331.39 2.37 329.03 5.28 329.03 L10.56 329.03" class="st4"/><path d="M15.84 252.25 C18.75 252.25 21.12 254.62 21.12 257.52 C21.12 260.43 18.75 262.79 15.84 262.79 C14.38 262.79 13.2 261.61 13.2 260.16 C13.2 258.7 14.38 257.52 15.84 257.52 L21.12 257.52" class="st4"/><path d="M87.09 262.79 L15.84 262.79" class="st4"/><path d="M5.28 329.03 C6.74 329.03 7.92 330.21 7.92 331.66 C7.92 333.12 6.74 334.29 5.28 334.29 L10.56 334.29" class="st4"/><path d="M5.28 339.56 C8.19 339.56 10.56 337.2 10.56 334.29 L10.56 329.03" class="st4"/></g><g id="shape215-60"><text x="17.47" y="277.01" class="st8">mutations.yaml<tspan x="26.78" class="st6" dy="1.2em">ConfigMap</tspan><tspan x="40.58" class="st9" dy="2.55em">env</tspan><tspan class="st9">: ...</tspan><tspan x="33.97" class="st9" dy="1.2em">volumes</tspan><tspan class="st9">: ...</tspan><tspan x="30.83" class="st9" dy="1.2em">tolerations</tspan><tspan class="st9">: ...</tspan><tspan x="25.15" class="st9" dy="1.2em">volumeMounts</tspan><tspan class="st9">: ...</tspan><tspan x="46.87" class="st9" dy="1.2em">...</tspan></text></g></g><g id="group234-72" transform="translate(430.046,-82.5429)"><title>Sheet.234</title><desc>AdmissionResponse: List of patches to be applied to the pod s...</desc><g id="shape225-73" transform="translate(3.8943,5.68434E-014)"><title>Sheet.225</title><path d="M0 339.56 C2.15 339.56 3.89 337.82 3.89 335.68 L0 335.68 C1.07 335.68 1.94 334.81 1.94 333.74 C1.94 332.67 1.07 331.8 0 331.8 L3.89 331.8 L3.89 279.1 C3.89 276.96 5.63 275.21 7.78 275.21 L147.93 275.21 C150.08 275.21 151.82 276.96 151.82 279.1 C151.82 281.24 150.08 282.98 147.93 282.98 L144.04 282.98 L144.04 335.68 C144.04 337.82 142.3 339.56 140.15 339.56 L0 339.56 ZM11.67 279.1 C11.67 281.24 9.93 282.98 7.78 282.98 C6.7 282.98 5.83 282.11 5.83 281.04 C5.83 279.97 6.7 279.1 7.78 279.1 L11.67 279.1 Z" class="st1"/></g><g id="shape226-75"><title>Sheet.226</title><path d="M15.56 279.1 C15.56 281.24 13.82 282.98 11.68 282.98 C10.59 282.98 9.72 282.11 9.72 281.04 C9.72 279.97 10.59 279.1 11.68 279.1 L15.56 279.1 ZM7.78 335.68 C7.78 337.82 6.04 339.56 3.89 339.56 C1.75 339.56 -0 337.82 0 335.68 C-0 333.54 1.75 331.8 3.89 331.8 C4.97 331.8 5.84 332.67 5.84 333.74 C5.84 334.81 4.97 335.68 3.89 335.68 L7.78 335.68 Z" class="st2"/></g><g id="shape227-77"><title>Sheet.227</title><path d="M7.78 331.8 L7.78 279.1 C7.78 276.96 9.52 275.21 11.68 275.21 L151.83 275.21 C153.97 275.21 155.71 276.96 155.71 279.1 C155.71 281.24 153.97 282.98 151.83 282.98 L147.94 282.98 L147.94 335.68 C147.94 337.82 146.2 339.56 144.04 339.56 L3.89 339.56 C1.75 339.56 0 337.82 0 335.68 C-0 333.54 1.75 331.8 3.89 331.8 L7.78 331.8 Z" class="st3"/><path d="M7.78 331.8 L7.78 279.1 C7.78 276.96 9.52 275.21 11.68 275.21 L151.83 275.21 C153.97 275.21 155.71 276.96 155.71 279.1 C155.71 281.24 153.97 282.98 151.83 282.98 L147.94 282.98 L147.94 335.68 C147.94 337.82 146.2 339.56 144.04 339.56 L3.89 339.56 C1.75 339.56 0 337.82 0 335.68 C-0 333.54 1.75 331.8 3.89 331.8 L7.78 331.8" class="st4"/><path d="M11.68 275.21 C13.82 275.21 15.56 276.96 15.56 279.1 C15.56 281.24 13.82 282.98 11.68 282.98 C10.59 282.98 9.72 282.11 9.72 281.04 C9.72 279.97 10.59 279.1 11.68 279.1 L15.56 279.1" class="st4"/><path d="M147.94 282.98 L11.68 282.98" class="st4"/><path d="M3.89 331.8 C4.97 331.8 5.84 332.67 5.84 333.74 C5.84 334.81 4.97 335.68 3.89 335.68 L7.78 335.68" class="st4"/><path d="M3.89 339.56 C6.04 339.56 7.78 337.82 7.78 335.68 L7.78 331.8" class="st4"/></g><g id="shape234-84"><text x="21.71" y="296.59" class="st5">AdmissionResponse:<tspan x="23.11" class="st6" dy="1.2em">List of patches to be</tspan><tspan x="12.5" class="st6" dy="1.2em">applied to the pod spec</tspan>.</text></g></g><g id="shape240-88" transform="translate(502.771,-239.272)"><title>Cross</title><path d="M0 335.36 L4.2 335.36 L4.2 339.56 L6.07 339.56 L6.07 335.36 L10.26 335.36 L10.26 333.49 L6.07 333.49 L6.07 329.3 L4.2 329.3 L4.2 333.49 L0 333.49 L0 335.36 Z" class="st10"/></g><g id="shape241-90" transform="translate(837.397,157.093) rotate(90)"><title>Chevron</title><path d="M0 339.56 L10.06 339.56 L20.13 329.5 L10.06 319.43 L0 319.43 L10.06 329.5 L0 339.56 Z" class="st10"/></g><g id="shape242-92" transform="translate(46.4517,274.874) rotate(-90)"><title>Trapezoid</title><path d="M0 339.56 L238.11 339.56 L155.91 277.2 L82.2 277.2 L0 339.56 Z" class="st7"/></g><g id="shape243-94" transform="translate(58.752,-266.512)"><title>Dynamic connector</title><path d="M7.09 339.56 L7.09 375.67" class="st11"/></g><g id="shape244-100" transform="translate(58.752,-146.891)"><title>Dynamic connector.244</title><path d="M7.09 339.56 L7.09 392.11" class="st11"/></g><g id="shape246-105" transform="translate(122.531,-197.914)"><title>Sheet.246</title><path d="M0 339.56 L77.92 339.56" class="st11"/></g><g id="shape247-110" transform="translate(122.531,-169.568)"><title>Sheet.247</title><path d="M9.45 339.56 L9.81 339.56 L87.73 339.56" class="st13"/></g><g id="shape255-116" transform="translate(108.217,-282.67)"><title>2-D word balloon</title><desc>1 Pod spec is submitted to the API server.</desc><path d="M0 314.4 L0 299.31 L42.52 299.31 L56.69 299.31 L70.87 299.31 L113.39 299.31 L113.39 314.4 L113.39 319.43 L113.39 324.47 L113.39 339.56 L70.87 339.56 L56.69 339.56 L42.52 339.56 L0 339.56 L0 324.47 L-10.57 319.43 L0 314.4 Z" class="st14"/><text x="8.1" y="316.73" class="st15">1<tspan class="st16"> </tspan><tspan class="st16">Pod spec is submitted </tspan><tspan x="22.07" class="st16" dy="1.2em">to the API server</tspan><tspan class="st16">.</tspan></text></g><g id="shape257-123" transform="translate(133.728,-225.978)"><title>2-D word balloon.257</title><desc>2 API server sends AdmissionReview request to the webhook.</desc><path d="M0 314.4 L0 299.31 L42.52 299.31 L56.69 299.31 L70.87 299.31 L113.39 299.31 L113.39 314.4 L113.39 319.43 L113.39 324.47 L113.39 339.56 L70.87 339.56 L19.84 367.62 L42.52 339.56 L0 339.56 L0 324.47 L0 319.43 L0 314.4 Z" class="st14"/><text x="19.25" y="311.33" class="st15">2<tspan class="st16"> </tspan><tspan class="st16">API server sends </tspan><tspan x="4.45" class="st16" dy="1.2em">AdmissionReview request </tspan><tspan x="23.85" class="st16" dy="1.2em">to the webhook</tspan><tspan class="st16">.</tspan></text></g><g id="shape259-131" transform="translate(232.941,-31.2363)"><title>2-D word balloon.259</title><desc>3 Webhook reads pod spec and mutations config and prepares se...</desc><path d="M0 293.5 L0 265.86 L42.52 265.86 L153.07 228.16 L70.87 265.86 L113.39 265.86 L113.39 293.5 L113.39 302.71 L113.39 311.92 L113.39 339.56 L70.87 339.56 L56.69 339.56 L42.52 339.56 L0 339.56 L0 311.92 L0 302.71 L0 293.5 Z" class="st14"/><text x="11.63" y="278.41" class="st15">3<tspan class="st16"> </tspan><tspan class="st16">Webhook reads pod </tspan><tspan x="16.83" class="st16" dy="1.2em">spec and mutations </tspan><tspan x="8.97" class="st16" dy="1.2em">config and prepares set </tspan><tspan x="7.53" class="st16" dy="1.2em">of patches to be applied </tspan><tspan x="12.56" class="st16" dy="1.2em">on top of original pod </tspan><tspan x="46.29" class="st16" dy="1.2em">spec</tspan><tspan class="st16">.</tspan></text></g><g id="shape261-142" transform="translate(136.563,-81.8353)"><title>2-D word balloon.261</title><desc>4 API server applies patches and sends final pod spec to Kube...</desc><path d="M0 304.3 L0 283.15 L31.05 283.15 L41.4 283.15 L51.75 283.15 L82.8 283.15 L82.8 304.3 L82.8 311.36 L82.8 318.41 L82.8 339.56 L51.75 339.56 L41.4 339.56 L31.05 339.56 L0 339.56 L0 318.41 L-39.69 274.5 L0 304.3 Z" class="st14"/><text x="17.05" y="292.46" class="st15">4<tspan class="st16"> </tspan><tspan class="st16">API server </tspan><tspan x="9.68" class="st16" dy="1.2em">applies patches </tspan><tspan x="10.68" class="st16" dy="1.2em">and sends final </tspan><tspan x="17.47" class="st16" dy="1.2em">pod spec to </tspan><tspan x="24.61" class="st16" dy="1.2em">Kubelet</tspan><tspan class="st16">.</tspan></text></g></g></svg>