<svg xmlns="http://www.w3.org/2000/svg" xmlns:xlink="http://www.w3.org/1999/xlink" width="810" height="710" preserveAspectRatio="xMidYMid meet" viewBox="0 0 810 710"><defs id="svgEditorDefs"><polygon id="svgEditorShapeDefs" fill="khaki" stroke="#000" style="vector-effect:non-scaling-stroke;stroke-width:1px"/></defs><rect id="svgEditorBackground" width="810" height="710" x="0" y="0" style="fill:none;stroke:none"/><rect fill="#add8e6" style="stroke-width:1px" id="e1_rectangle" width="722" height="675" x="15" y="18" stroke="#000" rx="0" ry="0" transform="matrix(0.991244 0 0 0.991244 0.938765 0.965034)"/><text id="e42_texte" x="35" y="49" fill="#000" transform="matrix(1.34225 0 0 1.34225 -0.816243 -1.84298)" style="font-family:Arial;font-size:20px">cmk node</text><rect fill="khaki" style="stroke-width:1px" id="e58_rectangle" width="290" height="280" x="35" y="215" stroke="#000" rx="0" ry="0" transform="matrix(1.34225 0 0 1.34225 -0.816243 -1.84298)"/><text id="e98_texte" x="58" y="250" fill="#000" transform="matrix(1.34225 0 0 1.34225 -0.816243 -1.84298)" style="font-family:Arial;font-size:20px">container</text><text id="e128_texte" x="366" y="294" fill="#000" transform="matrix(1.34225 0 0 1.34225 -0.816243 -1.84298)" style="font-family:&quot;Courier New&quot;;font-size:20px">/etc/cmk<tspan x="366" dy="1.25em">/opt/bin/cmk</tspan><tspan x="366" dy="1.25em">/proc</tspan></text><text id="e183_texte" x="55" y="289" fill="#000" transform="matrix(1.34225 0 0 1.34225 -0.816243 -1.84298)" style="font-family:&quot;Courier New&quot;;font-size:14px">CMK_PROC_FS=/host/proc<tspan x="55" dy="1.25em">/opt/bin/cmk isolate</tspan><tspan x="55" dy="1.25em">--pool=shared</tspan><tspan x="55" dy="1.25em">my-program -- --arg=foo</tspan></text><path id="e202_shape" fill="#FFF" stroke="#000" d="M-7.966031749570302,1.4369891772123182l-1.2302204981170703,-1.2632648306605176h0.9177204981170703a8,8,0,0,1,5.071438462621618,-4.9152155536581335a3.839236,3.839236,0,0,1,1.0308917709220928,0.5370836569672726a5.861794,5.861794,0,0,0,-5.352330233543711,4.331282221674652h0.8636576493976911Z" transform="matrix(-0.342381 -24.278 -28.6223 0.290415 339.704 358.542)" style="vector-effect:non-scaling-stroke;stroke-width:1px"/><text id="e323_texte" x="263" y="435" fill="#000" transform="matrix(1.34225 0 0 1.34225 -0.816243 -1.84298)" style="font-family:Arial;font-size:20px;font-style:italic">mount</text><text id="e440_texte" x="120" y="412" fill="#000" transform="matrix(1.34225 0 0 1.34225 -0.816243 -1.84298)" style="font-family:&quot;Courier New&quot;;font-size:14px">/etc/cmk<tspan x="120" dy="1.25em">/opt/bin/cmk</tspan><tspan x="120" dy="1.25em">/host/proc</tspan></text><rect fill="#ffb6c1" style="stroke-width:1px" id="e547_rectangle" width="284" height="49" x="34" y="72" stroke="#000" rx="0" ry="0" transform="matrix(1.34225 0 0 1.34225 -0.816243 -1.84298)"/><text id="e561_texte" x="51" y="103" fill="#000" transform="matrix(1.34225 0 0 1.34225 -0.816243 -1.84298)" style="font-family:Arial;font-size:20px">kubelet</text><rect fill="#ffb6c1" style="stroke-width:1px" id="e602_rectangle" width="284" height="49" x="35" y="137" stroke="#000" rx="0" ry="0" transform="matrix(1.34225 0 0 1.34225 -0.816243 -1.84298)"/><text id="e615_texte" x="54" y="169" fill="#000" transform="matrix(1.34225 0 0 1.34225 -0.816243 -1.84298)" style="font-family:Arial;font-size:20px">dockerd</text></svg>